<svg width="107" height="107" viewBox="0 0 107 107" fill="none" xmlns="http://www.w3.org/2000/svg">
<g clip-path="url(#clip0_1_2)">
<circle cx="53.5" cy="53.5" r="53.5" fill="white"/>
<circle cx="53" cy="53" r="31" fill="#C7C7C7"/>
<circle cx="53" cy="53" r="31" fill="#FFF2F2"/>
<path d="M22.9868 49.7757L23.7783 91.2594C23.7836 91.5375 23.8287 91.8168 23.9123 92.0886C24.7178 94.7092 28.2561 95.1971 29.3362 92.8365L29.4273 92.6374C29.6026 92.2544 29.6891 91.8306 29.6807 91.3955L28.8966 50.2983C28.8462 47.6586 29.9553 45.226 31.9301 43.6445L32.1989 43.4292C34.1738 41.8477 35.2828 39.415 35.2325 36.7753L35.2225 36.2507L34.3668 18.3409C34.3612 18.2233 34.3392 18.1056 34.3013 17.9914C33.8618 16.6643 31.9693 16.7471 31.8654 18.0979L31.8347 18.4972L30.2137 34.4236C30.1569 34.9808 29.7578 35.4155 29.212 35.5145C28.3841 35.6647 27.5634 35.0019 27.5134 34.1427L26.5619 17.8115C26.542 17.4691 26.4301 17.1309 26.2382 16.8328L25.8297 16.1982C25.3362 15.4317 24.2884 15.2861 23.7171 15.9048C23.5073 16.132 23.3932 16.4349 23.396 16.7574L23.5441 33.7657C23.5503 34.4773 23.0484 35.05 22.3504 35.1275C21.4515 35.2274 20.6126 34.4792 20.5951 33.562L20.2829 17.1994C20.279 16.9946 20.2326 16.7881 20.1478 16.595C19.5091 15.1419 17.4161 15.3179 17.2997 16.8427L16.6888 35.4596C16.6 38.1655 17.7423 40.8683 19.7966 42.8129L19.8758 42.8879C21.8069 44.7159 22.938 47.2202 22.9868 49.7757Z" fill="black"/>
<path d="M47.9868 38.7757L48.7783 80.2594C48.7836 80.5375 48.8287 80.8168 48.9123 81.0886C49.7178 83.7092 53.2561 84.1971 54.3362 81.8365L54.4273 81.6374C54.6026 81.2544 54.6891 80.8306 54.6807 80.3955L53.8966 39.2983C53.8462 36.6586 54.9553 34.226 56.9301 32.6445L57.1989 32.4292C59.1738 30.8477 60.2828 28.415 60.2325 25.7753L60.2225 25.2507L59.3668 7.34094C59.3612 7.22326 59.3392 7.10558 59.3013 6.99136C58.8618 5.66431 56.9693 5.74706 56.8654 7.09788L56.8347 7.49719L55.2137 23.4236C55.1569 23.9808 54.7578 24.4155 54.212 24.5145C53.3841 24.6647 52.5634 24.0019 52.5134 23.1427L51.5619 6.81145C51.542 6.4691 51.4301 6.13088 51.2382 5.83277L50.8297 5.19824C50.3362 4.43165 49.2884 4.28609 48.7171 4.90476C48.5073 5.13197 48.3932 5.4349 48.396 5.75743L48.5441 22.7657C48.5503 23.4773 48.0484 24.05 47.3504 24.1275C46.4515 24.2274 45.6126 23.4792 45.5951 22.562L45.2829 6.19944C45.279 5.99461 45.2326 5.7881 45.1478 5.59497C44.5091 4.14192 42.4161 4.31786 42.2997 5.84269L41.6888 24.4596C41.6 27.1655 42.7423 29.8683 44.7966 31.8129L44.8758 31.8879C46.8069 33.7159 47.938 36.2202 47.9868 38.7757Z" fill="black"/>
<path d="M72.9868 50.7757L73.7783 92.2594C73.7836 92.5375 73.8287 92.8168 73.9123 93.0886C74.7178 95.7092 78.2561 96.1971 79.3362 93.8365L79.4273 93.6374C79.6026 93.2544 79.6891 92.8306 79.6807 92.3955L78.8966 51.2983C78.8462 48.6586 79.9553 46.226 81.9301 44.6445L82.1989 44.4292C84.1738 42.8477 85.2828 40.415 85.2325 37.7753L85.2225 37.2507L84.3668 19.3409C84.3612 19.2233 84.3392 19.1056 84.3013 18.9914C83.8618 17.6643 81.9693 17.7471 81.8654 19.0979L81.8347 19.4972L80.2137 35.4236C80.1569 35.9808 79.7578 36.4155 79.212 36.5145C78.3841 36.6647 77.5634 36.0019 77.5134 35.1427L76.5619 18.8115C76.542 18.4691 76.4301 18.1309 76.2382 17.8328L75.8297 17.1982C75.3362 16.4317 74.2884 16.2861 73.7171 16.9048C73.5073 17.132 73.3932 17.4349 73.396 17.7574L73.5441 34.7657C73.5503 35.4773 73.0484 36.05 72.3504 36.1275C71.4515 36.2274 70.6126 35.4792 70.5951 34.562L70.2829 18.1994C70.279 17.9946 70.2326 17.7881 70.1478 17.595C69.5091 16.1419 67.4161 16.3179 67.2997 17.8427L66.6888 36.4596C66.6 39.1655 67.7423 41.8683 69.7966 43.8129L69.8758 43.8879C71.8069 45.7159 72.938 48.2202 72.9868 50.7757Z" fill="black"/>
</g>
<defs>
<clipPath id="clip0_1_2">
<rect width="107" height="107" fill="white"/>
</clipPath>
</defs>
</svg>
